<?xml version="1.0" encoding="UTF-8" standalone="no"?>
<!DOCTYPE svg PUBLIC "-//W3C//DTD SVG 1.1//EN" "http://www.w3.org/Graphics/SVG/1.1/DTD/svg11.dtd">
<svg width="38mm" height="49mm" version="1.1" xmlns="http://www.w3.org/2000/svg" xmlns:xlink="http://www.w3.org/1999/xlink" xml:space="preserve" xmlns:serif="http://www.serif.com/" style="fill-rule:evenodd;clip-rule:evenodd;stroke-linejoin:round;stroke-miterlimit:2;">
    <g transform="matrix(1,0,0,1,-2912.2,-640.167)">
        <g transform="matrix(0.235185,0,0,1.04384,2477.81,10)">
            <g transform="matrix(6.54815,-1.66486e-31,-9.53316e-32,1.14794,-17282.2,-134.774)">
                <path d="M2933.54,644L2938.77,647.8L2936.77,653.95L2930.3,653.95L2928.31,647.8L2933.54,644Z" style="fill:rgb(117,55,31);"/>
                <path d="M2933.8,643.395C2933.64,643.275 2933.43,643.275 2933.27,643.395L2928.04,647.195C2927.8,647.368 2927.7,647.743 2927.81,648.068L2929.8,654.218C2929.89,654.476 2930.09,654.645 2930.3,654.645L2936.77,654.645C2936.99,654.645 2937.18,654.476 2937.27,654.218L2939.27,648.068C2939.37,647.743 2939.27,647.368 2939.03,647.195L2933.8,643.395ZM2933.54,644L2938.77,647.8L2936.77,653.95L2930.3,653.95L2928.31,647.8L2933.54,644Z" style="fill:rgb(222,155,116);"/>
            </g>
            <g transform="matrix(4.25197,0,0,0.958005,-10535.6,-9.58005)">
                <path d="M2931.04,652C2940.97,652 2949.04,660.066 2949.04,670C2949.04,679.934 2940.97,688 2931.04,688C2921.1,688 2913.04,679.934 2913.04,670C2913.04,660.066 2921.1,652 2931.04,652ZM2931.04,654.265C2922.35,654.265 2915.3,661.316 2915.3,670C2915.3,678.684 2922.35,685.735 2931.04,685.735C2939.72,685.735 2946.77,678.684 2946.77,670C2946.77,661.316 2939.72,654.265 2931.04,654.265Z" style="fill:rgb(117,55,31);"/>
                <path d="M2931.04,651.167C2920.64,651.167 2912.2,659.606 2912.2,670C2912.2,680.394 2920.64,688.833 2931.04,688.833C2941.43,688.833 2949.87,680.394 2949.87,670C2949.87,659.606 2941.43,651.167 2931.04,651.167ZM2931.04,652C2940.97,652 2949.04,660.066 2949.04,670C2949.04,679.934 2940.97,688 2931.04,688C2921.1,688 2913.04,679.934 2913.04,670C2913.04,660.066 2921.1,652 2931.04,652ZM2931.04,654.265C2922.35,654.265 2915.3,661.316 2915.3,670C2915.3,678.684 2922.35,685.735 2931.04,685.735C2939.72,685.735 2946.77,678.684 2946.77,670C2946.77,661.316 2939.72,654.265 2931.04,654.265ZM2931.04,655.099C2939.26,655.099 2945.94,661.776 2945.94,670C2945.94,678.224 2939.26,684.901 2931.04,684.901C2922.81,684.901 2916.14,678.224 2916.14,670C2916.14,661.776 2922.81,655.099 2931.04,655.099Z" style="fill:rgb(222,155,116);"/>
            </g>
        </g>
    </g>
</svg>
